G04 MADE WITH FRITZING*
G04 WWW.FRITZING.ORG*
G04 DOUBLE SIDED*
G04 HOLES PLATED*
G04 CONTOUR ON CENTER OF CONTOUR VECTOR*
%ASAXBY*%
%FSLAX23Y23*%
%MOIN*%
%OFA0B0*%
%SFA1.0B1.0*%
%ADD10C,0.075000*%
%ADD11C,0.039370*%
%ADD12C,0.042822*%
%ADD13C,0.079370*%
%ADD14C,0.082000*%
%ADD15R,0.014860X0.014860*%
%ADD16R,0.075000X0.075000*%
%ADD17R,0.079370X0.079370*%
%ADD18R,0.082000X0.082000*%
%ADD19R,0.078740X0.137795*%
%ADD20C,0.024000*%
%ADD21R,0.001000X0.001000*%
%LNCOPPER1*%
G90*
G70*
G54D10*
X1682Y774D03*
X1682Y374D03*
G54D11*
X211Y1471D03*
X206Y1577D03*
X206Y1677D03*
G54D12*
X702Y374D03*
X782Y374D03*
X862Y374D03*
G54D10*
X482Y274D03*
X482Y174D03*
X1182Y374D03*
X1282Y374D03*
X982Y274D03*
X982Y174D03*
G54D13*
X182Y274D03*
X182Y137D03*
G54D10*
X82Y674D03*
X82Y974D03*
X182Y674D03*
X182Y974D03*
X282Y674D03*
X282Y974D03*
X382Y674D03*
X382Y974D03*
X482Y674D03*
X482Y974D03*
X582Y674D03*
X582Y974D03*
X682Y674D03*
X682Y974D03*
X782Y674D03*
X782Y974D03*
X882Y674D03*
X882Y974D03*
X982Y674D03*
X982Y974D03*
X1082Y674D03*
X1082Y974D03*
X1182Y674D03*
X1182Y974D03*
X1282Y674D03*
X1282Y974D03*
X1382Y674D03*
X1382Y974D03*
G54D14*
X1382Y1474D03*
X1482Y1474D03*
X1582Y1474D03*
X882Y1374D03*
X982Y1374D03*
X1082Y1374D03*
X382Y1274D03*
X482Y1274D03*
X582Y1274D03*
G54D15*
X405Y451D03*
G54D16*
X482Y274D03*
X1182Y374D03*
X982Y274D03*
G54D17*
X182Y274D03*
G54D16*
X82Y674D03*
G54D18*
X1382Y1474D03*
X882Y1374D03*
X382Y1274D03*
G54D19*
X1682Y1274D03*
X1544Y1274D03*
X1544Y940D03*
X1682Y940D03*
G54D20*
X485Y374D02*
X182Y374D01*
D02*
X182Y374D02*
X182Y305D01*
D02*
X673Y374D02*
X485Y374D01*
D02*
X485Y374D02*
X483Y303D01*
D02*
X383Y1074D02*
X1384Y1274D01*
D02*
X183Y1074D02*
X883Y1274D01*
D02*
X83Y1174D02*
X383Y1174D01*
D02*
X383Y1174D02*
X383Y1242D01*
D02*
X883Y1274D02*
X883Y1342D01*
D02*
X1384Y1274D02*
X1384Y1374D01*
D02*
X1384Y1374D02*
X1383Y1442D01*
D02*
X303Y994D02*
X383Y1074D01*
D02*
X182Y1003D02*
X183Y1074D01*
D02*
X82Y1003D02*
X83Y1174D01*
D02*
X883Y1074D02*
X883Y1003D01*
D02*
X1511Y1264D02*
X883Y1074D01*
D02*
X1484Y674D02*
X1411Y674D01*
D02*
X1584Y774D02*
X1484Y674D01*
D02*
X1654Y774D02*
X1584Y774D01*
D02*
X1384Y374D02*
X1654Y374D01*
D02*
X1682Y876D02*
X1682Y803D01*
D02*
X986Y380D02*
X1154Y375D01*
D02*
X1384Y374D02*
X1311Y374D01*
D02*
X1384Y574D02*
X1384Y374D01*
D02*
X986Y380D02*
X984Y476D01*
D02*
X683Y474D02*
X682Y646D01*
D02*
X984Y476D02*
X683Y474D01*
D02*
X481Y1476D02*
X482Y1306D01*
D02*
X230Y1471D02*
X481Y1476D01*
D02*
X1481Y1672D02*
X1482Y1506D01*
D02*
X225Y1677D02*
X1481Y1672D01*
D02*
X984Y1577D02*
X982Y1406D01*
D02*
X225Y1577D02*
X984Y1577D01*
D02*
X783Y74D02*
X782Y345D01*
D02*
X481Y74D02*
X783Y74D01*
D02*
X783Y574D02*
X783Y646D01*
D02*
X1384Y574D02*
X783Y574D01*
D02*
X1384Y74D02*
X1384Y574D01*
D02*
X984Y74D02*
X1384Y74D01*
D02*
X481Y74D02*
X481Y74D01*
D02*
X783Y74D02*
X783Y74D01*
D02*
X783Y74D02*
X984Y74D01*
D02*
X481Y74D02*
X783Y74D01*
D02*
X481Y74D02*
X481Y74D01*
D02*
X185Y74D02*
X481Y74D01*
D02*
X183Y106D02*
X185Y74D01*
D02*
X984Y74D02*
X983Y146D01*
D02*
X986Y380D02*
X892Y376D01*
D02*
X983Y303D02*
X986Y380D01*
D02*
X481Y74D02*
X482Y146D01*
G54D21*
X260Y582D02*
X278Y582D01*
X260Y581D02*
X281Y581D01*
X260Y580D02*
X282Y580D01*
X260Y579D02*
X284Y579D01*
X260Y578D02*
X285Y578D01*
X260Y577D02*
X286Y577D01*
X260Y576D02*
X286Y576D01*
X260Y575D02*
X287Y575D01*
X260Y574D02*
X287Y574D01*
X260Y573D02*
X288Y573D01*
X260Y572D02*
X288Y572D01*
X260Y571D02*
X289Y571D01*
X260Y570D02*
X289Y570D01*
X260Y569D02*
X289Y569D01*
X260Y568D02*
X289Y568D01*
X260Y567D02*
X304Y567D01*
X275Y566D02*
X304Y566D01*
X275Y565D02*
X304Y565D01*
X275Y564D02*
X304Y564D01*
X276Y563D02*
X304Y563D01*
X276Y562D02*
X304Y562D01*
X276Y561D02*
X304Y561D01*
X277Y560D02*
X304Y560D01*
X277Y559D02*
X304Y559D01*
X278Y558D02*
X304Y558D01*
X279Y557D02*
X304Y557D01*
X280Y556D02*
X304Y556D01*
X281Y555D02*
X304Y555D01*
X283Y554D02*
X304Y554D01*
X287Y553D02*
X303Y553D01*
X107Y536D02*
X136Y536D01*
X153Y536D02*
X183Y536D01*
X274Y536D02*
X290Y536D01*
X354Y536D02*
X383Y536D01*
X430Y536D02*
X459Y536D01*
X505Y536D02*
X552Y536D01*
X107Y535D02*
X136Y535D01*
X152Y535D02*
X187Y535D01*
X270Y535D02*
X294Y535D01*
X353Y535D02*
X383Y535D01*
X430Y535D02*
X459Y535D01*
X500Y535D02*
X556Y535D01*
X107Y534D02*
X136Y534D01*
X152Y534D02*
X189Y534D01*
X268Y534D02*
X296Y534D01*
X353Y534D02*
X383Y534D01*
X430Y534D02*
X459Y534D01*
X499Y534D02*
X558Y534D01*
X107Y533D02*
X136Y533D01*
X152Y533D02*
X191Y533D01*
X266Y533D02*
X298Y533D01*
X353Y533D02*
X383Y533D01*
X430Y533D02*
X459Y533D01*
X497Y533D02*
X560Y533D01*
X107Y532D02*
X136Y532D01*
X152Y532D02*
X192Y532D01*
X265Y532D02*
X299Y532D01*
X353Y532D02*
X383Y532D01*
X430Y532D02*
X459Y532D01*
X496Y532D02*
X561Y532D01*
X107Y531D02*
X136Y531D01*
X152Y531D02*
X193Y531D01*
X264Y531D02*
X300Y531D01*
X353Y531D02*
X383Y531D01*
X430Y531D02*
X459Y531D01*
X495Y531D02*
X562Y531D01*
X107Y530D02*
X136Y530D01*
X152Y530D02*
X194Y530D01*
X263Y530D02*
X301Y530D01*
X353Y530D02*
X383Y530D01*
X430Y530D02*
X459Y530D01*
X494Y530D02*
X562Y530D01*
X107Y529D02*
X136Y529D01*
X152Y529D02*
X195Y529D01*
X263Y529D02*
X301Y529D01*
X353Y529D02*
X383Y529D01*
X430Y529D02*
X459Y529D01*
X493Y529D02*
X563Y529D01*
X107Y528D02*
X136Y528D01*
X152Y528D02*
X195Y528D01*
X262Y528D02*
X302Y528D01*
X353Y528D02*
X383Y528D01*
X430Y528D02*
X459Y528D01*
X492Y528D02*
X564Y528D01*
X107Y527D02*
X136Y527D01*
X152Y527D02*
X196Y527D01*
X262Y527D02*
X303Y527D01*
X353Y527D02*
X383Y527D01*
X430Y527D02*
X459Y527D01*
X492Y527D02*
X564Y527D01*
X107Y526D02*
X136Y526D01*
X152Y526D02*
X196Y526D01*
X261Y526D02*
X303Y526D01*
X353Y526D02*
X383Y526D01*
X430Y526D02*
X459Y526D01*
X491Y526D02*
X564Y526D01*
X107Y525D02*
X136Y525D01*
X152Y525D02*
X196Y525D01*
X261Y525D02*
X303Y525D01*
X353Y525D02*
X383Y525D01*
X430Y525D02*
X459Y525D01*
X491Y525D02*
X565Y525D01*
X107Y524D02*
X136Y524D01*
X152Y524D02*
X197Y524D01*
X261Y524D02*
X304Y524D01*
X353Y524D02*
X383Y524D01*
X430Y524D02*
X459Y524D01*
X491Y524D02*
X565Y524D01*
X107Y523D02*
X136Y523D01*
X152Y523D02*
X197Y523D01*
X260Y523D02*
X304Y523D01*
X353Y523D02*
X383Y523D01*
X430Y523D02*
X459Y523D01*
X490Y523D02*
X565Y523D01*
X107Y522D02*
X136Y522D01*
X152Y522D02*
X197Y522D01*
X260Y522D02*
X304Y522D01*
X353Y522D02*
X383Y522D01*
X430Y522D02*
X459Y522D01*
X490Y522D02*
X565Y522D01*
X121Y521D02*
X151Y521D01*
X184Y521D02*
X197Y521D01*
X291Y521D02*
X319Y521D01*
X368Y521D02*
X383Y521D01*
X430Y521D02*
X445Y521D01*
X490Y521D02*
X504Y521D01*
X550Y521D02*
X565Y521D01*
X122Y520D02*
X151Y520D01*
X184Y520D02*
X197Y520D01*
X291Y520D02*
X319Y520D01*
X368Y520D02*
X383Y520D01*
X430Y520D02*
X444Y520D01*
X490Y520D02*
X504Y520D01*
X550Y520D02*
X565Y520D01*
X122Y519D02*
X151Y519D01*
X184Y519D02*
X197Y519D01*
X259Y519D02*
X260Y519D01*
X291Y519D02*
X319Y519D01*
X368Y519D02*
X383Y519D01*
X430Y519D02*
X444Y519D01*
X490Y519D02*
X504Y519D01*
X550Y519D02*
X565Y519D01*
X122Y518D02*
X151Y518D01*
X184Y518D02*
X197Y518D01*
X255Y518D02*
X260Y518D01*
X291Y518D02*
X319Y518D01*
X368Y518D02*
X383Y518D01*
X430Y518D02*
X444Y518D01*
X490Y518D02*
X503Y518D01*
X550Y518D02*
X565Y518D01*
X122Y517D02*
X151Y517D01*
X184Y517D02*
X197Y517D01*
X254Y517D02*
X260Y517D01*
X291Y517D02*
X319Y517D01*
X368Y517D02*
X383Y517D01*
X430Y517D02*
X444Y517D01*
X490Y517D02*
X503Y517D01*
X550Y517D02*
X565Y517D01*
X122Y516D02*
X151Y516D01*
X184Y516D02*
X197Y516D01*
X252Y516D02*
X260Y516D01*
X291Y516D02*
X319Y516D01*
X368Y516D02*
X383Y516D01*
X430Y516D02*
X444Y516D01*
X490Y516D02*
X503Y516D01*
X550Y516D02*
X565Y516D01*
X122Y515D02*
X151Y515D01*
X184Y515D02*
X197Y515D01*
X251Y515D02*
X260Y515D01*
X291Y515D02*
X319Y515D01*
X368Y515D02*
X383Y515D01*
X430Y515D02*
X444Y515D01*
X490Y515D02*
X502Y515D01*
X550Y515D02*
X565Y515D01*
X122Y514D02*
X150Y514D01*
X184Y514D02*
X197Y514D01*
X250Y514D02*
X260Y514D01*
X291Y514D02*
X319Y514D01*
X368Y514D02*
X383Y514D01*
X430Y514D02*
X444Y514D01*
X490Y514D02*
X502Y514D01*
X550Y514D02*
X565Y514D01*
X122Y513D02*
X150Y513D01*
X184Y513D02*
X197Y513D01*
X249Y513D02*
X260Y513D01*
X291Y513D02*
X319Y513D01*
X368Y513D02*
X383Y513D01*
X430Y513D02*
X444Y513D01*
X490Y513D02*
X501Y513D01*
X550Y513D02*
X565Y513D01*
X122Y512D02*
X149Y512D01*
X184Y512D02*
X197Y512D01*
X249Y512D02*
X260Y512D01*
X291Y512D02*
X319Y512D01*
X368Y512D02*
X383Y512D01*
X430Y512D02*
X444Y512D01*
X490Y512D02*
X500Y512D01*
X550Y512D02*
X565Y512D01*
X122Y511D02*
X148Y511D01*
X184Y511D02*
X197Y511D01*
X248Y511D02*
X260Y511D01*
X291Y511D02*
X319Y511D01*
X368Y511D02*
X383Y511D01*
X430Y511D02*
X444Y511D01*
X490Y511D02*
X499Y511D01*
X550Y511D02*
X565Y511D01*
X122Y510D02*
X148Y510D01*
X184Y510D02*
X197Y510D01*
X248Y510D02*
X260Y510D01*
X291Y510D02*
X319Y510D01*
X368Y510D02*
X383Y510D01*
X430Y510D02*
X444Y510D01*
X490Y510D02*
X498Y510D01*
X550Y510D02*
X565Y510D01*
X122Y509D02*
X146Y509D01*
X184Y509D02*
X197Y509D01*
X247Y509D02*
X260Y509D01*
X291Y509D02*
X319Y509D01*
X368Y509D02*
X383Y509D01*
X430Y509D02*
X444Y509D01*
X490Y509D02*
X497Y509D01*
X550Y509D02*
X565Y509D01*
X122Y508D02*
X145Y508D01*
X184Y508D02*
X197Y508D01*
X247Y508D02*
X260Y508D01*
X291Y508D02*
X319Y508D01*
X368Y508D02*
X383Y508D01*
X430Y508D02*
X444Y508D01*
X490Y508D02*
X495Y508D01*
X550Y508D02*
X565Y508D01*
X122Y507D02*
X143Y507D01*
X184Y507D02*
X197Y507D01*
X247Y507D02*
X260Y507D01*
X291Y507D02*
X319Y507D01*
X368Y507D02*
X383Y507D01*
X430Y507D02*
X444Y507D01*
X490Y507D02*
X493Y507D01*
X550Y507D02*
X565Y507D01*
X122Y506D02*
X141Y506D01*
X184Y506D02*
X197Y506D01*
X247Y506D02*
X260Y506D01*
X291Y506D02*
X319Y506D01*
X368Y506D02*
X383Y506D01*
X430Y506D02*
X444Y506D01*
X550Y506D02*
X565Y506D01*
X122Y505D02*
X136Y505D01*
X184Y505D02*
X197Y505D01*
X246Y505D02*
X260Y505D01*
X306Y505D02*
X319Y505D01*
X368Y505D02*
X386Y505D01*
X426Y505D02*
X444Y505D01*
X550Y505D02*
X565Y505D01*
X122Y504D02*
X136Y504D01*
X184Y504D02*
X197Y504D01*
X246Y504D02*
X260Y504D01*
X306Y504D02*
X319Y504D01*
X368Y504D02*
X389Y504D01*
X424Y504D02*
X444Y504D01*
X550Y504D02*
X565Y504D01*
X122Y503D02*
X136Y503D01*
X184Y503D02*
X197Y503D01*
X246Y503D02*
X260Y503D01*
X306Y503D02*
X319Y503D01*
X368Y503D02*
X391Y503D01*
X422Y503D02*
X444Y503D01*
X550Y503D02*
X565Y503D01*
X122Y502D02*
X136Y502D01*
X184Y502D02*
X197Y502D01*
X246Y502D02*
X260Y502D01*
X306Y502D02*
X319Y502D01*
X368Y502D02*
X392Y502D01*
X420Y502D02*
X444Y502D01*
X550Y502D02*
X565Y502D01*
X122Y501D02*
X136Y501D01*
X184Y501D02*
X197Y501D01*
X246Y501D02*
X260Y501D01*
X306Y501D02*
X319Y501D01*
X368Y501D02*
X393Y501D01*
X419Y501D02*
X444Y501D01*
X550Y501D02*
X565Y501D01*
X122Y500D02*
X136Y500D01*
X184Y500D02*
X197Y500D01*
X246Y500D02*
X260Y500D01*
X306Y500D02*
X319Y500D01*
X368Y500D02*
X394Y500D01*
X418Y500D02*
X444Y500D01*
X550Y500D02*
X565Y500D01*
X122Y499D02*
X136Y499D01*
X184Y499D02*
X197Y499D01*
X246Y499D02*
X260Y499D01*
X306Y499D02*
X319Y499D01*
X368Y499D02*
X395Y499D01*
X418Y499D02*
X444Y499D01*
X550Y499D02*
X565Y499D01*
X122Y498D02*
X136Y498D01*
X184Y498D02*
X197Y498D01*
X246Y498D02*
X260Y498D01*
X306Y498D02*
X319Y498D01*
X368Y498D02*
X396Y498D01*
X417Y498D02*
X444Y498D01*
X550Y498D02*
X565Y498D01*
X122Y497D02*
X136Y497D01*
X184Y497D02*
X197Y497D01*
X246Y497D02*
X260Y497D01*
X306Y497D02*
X319Y497D01*
X368Y497D02*
X396Y497D01*
X416Y497D02*
X444Y497D01*
X550Y497D02*
X565Y497D01*
X122Y496D02*
X136Y496D01*
X184Y496D02*
X197Y496D01*
X246Y496D02*
X260Y496D01*
X306Y496D02*
X319Y496D01*
X368Y496D02*
X397Y496D01*
X416Y496D02*
X444Y496D01*
X550Y496D02*
X565Y496D01*
X122Y495D02*
X136Y495D01*
X184Y495D02*
X197Y495D01*
X246Y495D02*
X260Y495D01*
X306Y495D02*
X319Y495D01*
X368Y495D02*
X397Y495D01*
X416Y495D02*
X444Y495D01*
X550Y495D02*
X565Y495D01*
X122Y494D02*
X136Y494D01*
X184Y494D02*
X197Y494D01*
X246Y494D02*
X260Y494D01*
X306Y494D02*
X319Y494D01*
X368Y494D02*
X397Y494D01*
X415Y494D02*
X444Y494D01*
X550Y494D02*
X565Y494D01*
X122Y493D02*
X136Y493D01*
X184Y493D02*
X197Y493D01*
X246Y493D02*
X260Y493D01*
X306Y493D02*
X319Y493D01*
X368Y493D02*
X398Y493D01*
X415Y493D02*
X444Y493D01*
X550Y493D02*
X565Y493D01*
X122Y492D02*
X136Y492D01*
X184Y492D02*
X197Y492D01*
X246Y492D02*
X260Y492D01*
X306Y492D02*
X319Y492D01*
X368Y492D02*
X398Y492D01*
X415Y492D02*
X444Y492D01*
X550Y492D02*
X565Y492D01*
X122Y491D02*
X136Y491D01*
X184Y491D02*
X197Y491D01*
X246Y491D02*
X260Y491D01*
X306Y491D02*
X319Y491D01*
X368Y491D02*
X398Y491D01*
X415Y491D02*
X443Y491D01*
X550Y491D02*
X565Y491D01*
X122Y490D02*
X136Y490D01*
X184Y490D02*
X197Y490D01*
X246Y490D02*
X260Y490D01*
X306Y490D02*
X319Y490D01*
X383Y490D02*
X398Y490D01*
X415Y490D02*
X429Y490D01*
X550Y490D02*
X565Y490D01*
X122Y489D02*
X136Y489D01*
X184Y489D02*
X197Y489D01*
X246Y489D02*
X260Y489D01*
X306Y489D02*
X319Y489D01*
X383Y489D02*
X398Y489D01*
X415Y489D02*
X429Y489D01*
X491Y489D02*
X539Y489D01*
X550Y489D02*
X565Y489D01*
X122Y488D02*
X136Y488D01*
X184Y488D02*
X197Y488D01*
X246Y488D02*
X260Y488D01*
X306Y488D02*
X319Y488D01*
X383Y488D02*
X398Y488D01*
X415Y488D02*
X429Y488D01*
X491Y488D02*
X542Y488D01*
X550Y488D02*
X565Y488D01*
X122Y487D02*
X136Y487D01*
X184Y487D02*
X197Y487D01*
X246Y487D02*
X260Y487D01*
X306Y487D02*
X319Y487D01*
X383Y487D02*
X398Y487D01*
X415Y487D02*
X429Y487D01*
X491Y487D02*
X544Y487D01*
X550Y487D02*
X565Y487D01*
X122Y486D02*
X136Y486D01*
X184Y486D02*
X197Y486D01*
X246Y486D02*
X260Y486D01*
X306Y486D02*
X319Y486D01*
X383Y486D02*
X398Y486D01*
X415Y486D02*
X429Y486D01*
X491Y486D02*
X545Y486D01*
X550Y486D02*
X565Y486D01*
X122Y485D02*
X136Y485D01*
X184Y485D02*
X197Y485D01*
X246Y485D02*
X260Y485D01*
X306Y485D02*
X319Y485D01*
X383Y485D02*
X398Y485D01*
X415Y485D02*
X429Y485D01*
X491Y485D02*
X546Y485D01*
X550Y485D02*
X565Y485D01*
X122Y484D02*
X136Y484D01*
X184Y484D02*
X197Y484D01*
X246Y484D02*
X260Y484D01*
X306Y484D02*
X319Y484D01*
X383Y484D02*
X398Y484D01*
X415Y484D02*
X429Y484D01*
X491Y484D02*
X547Y484D01*
X550Y484D02*
X565Y484D01*
X122Y483D02*
X136Y483D01*
X184Y483D02*
X197Y483D01*
X246Y483D02*
X260Y483D01*
X306Y483D02*
X319Y483D01*
X383Y483D02*
X398Y483D01*
X415Y483D02*
X429Y483D01*
X491Y483D02*
X548Y483D01*
X550Y483D02*
X565Y483D01*
X122Y482D02*
X136Y482D01*
X184Y482D02*
X197Y482D01*
X246Y482D02*
X260Y482D01*
X306Y482D02*
X319Y482D01*
X383Y482D02*
X398Y482D01*
X415Y482D02*
X429Y482D01*
X491Y482D02*
X548Y482D01*
X550Y482D02*
X565Y482D01*
X122Y481D02*
X136Y481D01*
X184Y481D02*
X197Y481D01*
X246Y481D02*
X260Y481D01*
X306Y481D02*
X319Y481D01*
X383Y481D02*
X398Y481D01*
X415Y481D02*
X429Y481D01*
X491Y481D02*
X565Y481D01*
X122Y480D02*
X136Y480D01*
X184Y480D02*
X197Y480D01*
X246Y480D02*
X260Y480D01*
X306Y480D02*
X319Y480D01*
X383Y480D02*
X398Y480D01*
X415Y480D02*
X429Y480D01*
X491Y480D02*
X565Y480D01*
X122Y479D02*
X136Y479D01*
X184Y479D02*
X197Y479D01*
X246Y479D02*
X260Y479D01*
X306Y479D02*
X319Y479D01*
X383Y479D02*
X398Y479D01*
X415Y479D02*
X429Y479D01*
X491Y479D02*
X565Y479D01*
X122Y478D02*
X136Y478D01*
X184Y478D02*
X197Y478D01*
X246Y478D02*
X260Y478D01*
X306Y478D02*
X319Y478D01*
X383Y478D02*
X398Y478D01*
X415Y478D02*
X429Y478D01*
X491Y478D02*
X565Y478D01*
X122Y477D02*
X136Y477D01*
X184Y477D02*
X197Y477D01*
X246Y477D02*
X260Y477D01*
X306Y477D02*
X319Y477D01*
X383Y477D02*
X398Y477D01*
X415Y477D02*
X429Y477D01*
X491Y477D02*
X565Y477D01*
X122Y476D02*
X136Y476D01*
X184Y476D02*
X197Y476D01*
X246Y476D02*
X260Y476D01*
X306Y476D02*
X319Y476D01*
X383Y476D02*
X398Y476D01*
X415Y476D02*
X429Y476D01*
X491Y476D02*
X565Y476D01*
X122Y475D02*
X136Y475D01*
X184Y475D02*
X197Y475D01*
X246Y475D02*
X260Y475D01*
X306Y475D02*
X319Y475D01*
X383Y475D02*
X398Y475D01*
X415Y475D02*
X429Y475D01*
X491Y475D02*
X565Y475D01*
X122Y474D02*
X136Y474D01*
X184Y474D02*
X197Y474D01*
X246Y474D02*
X260Y474D01*
X306Y474D02*
X319Y474D01*
X383Y474D02*
X398Y474D01*
X415Y474D02*
X429Y474D01*
X491Y474D02*
X505Y474D01*
X550Y474D02*
X565Y474D01*
X122Y473D02*
X136Y473D01*
X184Y473D02*
X197Y473D01*
X246Y473D02*
X275Y473D01*
X306Y473D02*
X319Y473D01*
X383Y473D02*
X398Y473D01*
X415Y473D02*
X429Y473D01*
X491Y473D02*
X505Y473D01*
X550Y473D02*
X565Y473D01*
X122Y472D02*
X136Y472D01*
X184Y472D02*
X197Y472D01*
X246Y472D02*
X275Y472D01*
X306Y472D02*
X319Y472D01*
X383Y472D02*
X398Y472D01*
X415Y472D02*
X429Y472D01*
X491Y472D02*
X505Y472D01*
X550Y472D02*
X565Y472D01*
X122Y471D02*
X136Y471D01*
X184Y471D02*
X197Y471D01*
X246Y471D02*
X275Y471D01*
X306Y471D02*
X319Y471D01*
X383Y471D02*
X398Y471D01*
X415Y471D02*
X429Y471D01*
X491Y471D02*
X505Y471D01*
X550Y471D02*
X565Y471D01*
X122Y470D02*
X136Y470D01*
X184Y470D02*
X197Y470D01*
X246Y470D02*
X275Y470D01*
X306Y470D02*
X319Y470D01*
X383Y470D02*
X398Y470D01*
X415Y470D02*
X429Y470D01*
X491Y470D02*
X505Y470D01*
X550Y470D02*
X565Y470D01*
X122Y469D02*
X136Y469D01*
X184Y469D02*
X197Y469D01*
X246Y469D02*
X275Y469D01*
X306Y469D02*
X318Y469D01*
X383Y469D02*
X398Y469D01*
X415Y469D02*
X429Y469D01*
X491Y469D02*
X505Y469D01*
X550Y469D02*
X565Y469D01*
X122Y468D02*
X136Y468D01*
X184Y468D02*
X197Y468D01*
X246Y468D02*
X275Y468D01*
X306Y468D02*
X318Y468D01*
X383Y468D02*
X398Y468D01*
X415Y468D02*
X429Y468D01*
X491Y468D02*
X505Y468D01*
X550Y468D02*
X565Y468D01*
X122Y467D02*
X136Y467D01*
X184Y467D02*
X197Y467D01*
X246Y467D02*
X275Y467D01*
X306Y467D02*
X318Y467D01*
X383Y467D02*
X398Y467D01*
X415Y467D02*
X429Y467D01*
X491Y467D02*
X505Y467D01*
X550Y467D02*
X565Y467D01*
X122Y466D02*
X136Y466D01*
X184Y466D02*
X197Y466D01*
X246Y466D02*
X275Y466D01*
X306Y466D02*
X317Y466D01*
X383Y466D02*
X398Y466D01*
X415Y466D02*
X429Y466D01*
X491Y466D02*
X505Y466D01*
X550Y466D02*
X565Y466D01*
X122Y465D02*
X136Y465D01*
X184Y465D02*
X197Y465D01*
X246Y465D02*
X275Y465D01*
X306Y465D02*
X316Y465D01*
X383Y465D02*
X398Y465D01*
X415Y465D02*
X429Y465D01*
X491Y465D02*
X505Y465D01*
X550Y465D02*
X565Y465D01*
X122Y464D02*
X136Y464D01*
X184Y464D02*
X197Y464D01*
X246Y464D02*
X275Y464D01*
X306Y464D02*
X315Y464D01*
X383Y464D02*
X398Y464D01*
X415Y464D02*
X429Y464D01*
X491Y464D02*
X505Y464D01*
X550Y464D02*
X565Y464D01*
X122Y463D02*
X136Y463D01*
X184Y463D02*
X197Y463D01*
X246Y463D02*
X275Y463D01*
X306Y463D02*
X314Y463D01*
X383Y463D02*
X398Y463D01*
X415Y463D02*
X429Y463D01*
X491Y463D02*
X505Y463D01*
X550Y463D02*
X565Y463D01*
X122Y462D02*
X136Y462D01*
X184Y462D02*
X197Y462D01*
X246Y462D02*
X275Y462D01*
X306Y462D02*
X313Y462D01*
X383Y462D02*
X398Y462D01*
X415Y462D02*
X429Y462D01*
X491Y462D02*
X505Y462D01*
X550Y462D02*
X565Y462D01*
X122Y461D02*
X136Y461D01*
X184Y461D02*
X197Y461D01*
X246Y461D02*
X275Y461D01*
X306Y461D02*
X311Y461D01*
X383Y461D02*
X398Y461D01*
X415Y461D02*
X429Y461D01*
X491Y461D02*
X505Y461D01*
X550Y461D02*
X565Y461D01*
X121Y460D02*
X136Y460D01*
X184Y460D02*
X197Y460D01*
X246Y460D02*
X275Y460D01*
X306Y460D02*
X306Y460D01*
X383Y460D02*
X398Y460D01*
X415Y460D02*
X428Y460D01*
X491Y460D02*
X505Y460D01*
X551Y460D02*
X565Y460D01*
X107Y459D02*
X136Y459D01*
X184Y459D02*
X212Y459D01*
X247Y459D02*
X275Y459D01*
X491Y459D02*
X550Y459D01*
X566Y459D02*
X580Y459D01*
X107Y458D02*
X136Y458D01*
X184Y458D02*
X212Y458D01*
X261Y458D02*
X306Y458D01*
X491Y458D02*
X550Y458D01*
X566Y458D02*
X580Y458D01*
X107Y457D02*
X136Y457D01*
X184Y457D02*
X212Y457D01*
X261Y457D02*
X305Y457D01*
X491Y457D02*
X550Y457D01*
X567Y457D02*
X580Y457D01*
X107Y456D02*
X136Y456D01*
X184Y456D02*
X212Y456D01*
X262Y456D02*
X305Y456D01*
X491Y456D02*
X550Y456D01*
X567Y456D02*
X580Y456D01*
X107Y455D02*
X136Y455D01*
X185Y455D02*
X212Y455D01*
X262Y455D02*
X305Y455D01*
X492Y455D02*
X550Y455D01*
X567Y455D02*
X580Y455D01*
X107Y454D02*
X135Y454D01*
X185Y454D02*
X212Y454D01*
X262Y454D02*
X304Y454D01*
X492Y454D02*
X550Y454D01*
X568Y454D02*
X580Y454D01*
X107Y453D02*
X135Y453D01*
X185Y453D02*
X212Y453D01*
X263Y453D02*
X304Y453D01*
X492Y453D02*
X550Y453D01*
X568Y453D02*
X580Y453D01*
X107Y452D02*
X134Y452D01*
X186Y452D02*
X212Y452D01*
X263Y452D02*
X303Y452D01*
X493Y452D02*
X550Y452D01*
X569Y452D02*
X580Y452D01*
X107Y451D02*
X133Y451D01*
X186Y451D02*
X212Y451D01*
X264Y451D02*
X303Y451D01*
X493Y451D02*
X550Y451D01*
X569Y451D02*
X580Y451D01*
X107Y450D02*
X132Y450D01*
X187Y450D02*
X212Y450D01*
X264Y450D02*
X302Y450D01*
X494Y450D02*
X550Y450D01*
X570Y450D02*
X580Y450D01*
X107Y449D02*
X131Y449D01*
X188Y449D02*
X212Y449D01*
X265Y449D02*
X301Y449D01*
X495Y449D02*
X550Y449D01*
X571Y449D02*
X580Y449D01*
X107Y448D02*
X130Y448D01*
X189Y448D02*
X212Y448D01*
X266Y448D02*
X300Y448D01*
X496Y448D02*
X550Y448D01*
X572Y448D02*
X580Y448D01*
X107Y447D02*
X129Y447D01*
X190Y447D02*
X212Y447D01*
X267Y447D02*
X299Y447D01*
X497Y447D02*
X550Y447D01*
X574Y447D02*
X580Y447D01*
X107Y446D02*
X127Y446D01*
X192Y446D02*
X212Y446D01*
X269Y446D02*
X297Y446D01*
X499Y446D02*
X550Y446D01*
X576Y446D02*
X580Y446D01*
X107Y445D02*
X121Y445D01*
X194Y445D02*
X211Y445D01*
X271Y445D02*
X295Y445D01*
X501Y445D02*
X550Y445D01*
X697Y423D02*
X706Y423D01*
X777Y423D02*
X786Y423D01*
X856Y423D02*
X866Y423D01*
X693Y422D02*
X710Y422D01*
X773Y422D02*
X790Y422D01*
X853Y422D02*
X870Y422D01*
X691Y421D02*
X712Y421D01*
X771Y421D02*
X792Y421D01*
X851Y421D02*
X872Y421D01*
X689Y420D02*
X714Y420D01*
X769Y420D02*
X794Y420D01*
X849Y420D02*
X873Y420D01*
X688Y419D02*
X715Y419D01*
X768Y419D02*
X795Y419D01*
X848Y419D02*
X875Y419D01*
X687Y418D02*
X716Y418D01*
X767Y418D02*
X796Y418D01*
X847Y418D02*
X876Y418D01*
X685Y417D02*
X717Y417D01*
X765Y417D02*
X797Y417D01*
X845Y417D02*
X877Y417D01*
X684Y416D02*
X718Y416D01*
X764Y416D02*
X798Y416D01*
X844Y416D02*
X878Y416D01*
X684Y415D02*
X719Y415D01*
X764Y415D02*
X799Y415D01*
X844Y415D02*
X879Y415D01*
X683Y414D02*
X720Y414D01*
X763Y414D02*
X800Y414D01*
X843Y414D02*
X880Y414D01*
X682Y413D02*
X721Y413D01*
X762Y413D02*
X801Y413D01*
X842Y413D02*
X881Y413D01*
X681Y412D02*
X721Y412D01*
X761Y412D02*
X801Y412D01*
X841Y412D02*
X881Y412D01*
X681Y411D02*
X722Y411D01*
X761Y411D02*
X802Y411D01*
X841Y411D02*
X882Y411D01*
X680Y410D02*
X723Y410D01*
X760Y410D02*
X802Y410D01*
X840Y410D02*
X882Y410D01*
X680Y409D02*
X723Y409D01*
X760Y409D02*
X803Y409D01*
X840Y409D02*
X883Y409D01*
X680Y408D02*
X723Y408D01*
X759Y408D02*
X803Y408D01*
X839Y408D02*
X883Y408D01*
X679Y407D02*
X724Y407D01*
X759Y407D02*
X804Y407D01*
X839Y407D02*
X884Y407D01*
X679Y406D02*
X724Y406D01*
X759Y406D02*
X804Y406D01*
X839Y406D02*
X884Y406D01*
X679Y405D02*
X724Y405D01*
X759Y405D02*
X804Y405D01*
X839Y405D02*
X884Y405D01*
X678Y404D02*
X725Y404D01*
X758Y404D02*
X804Y404D01*
X838Y404D02*
X884Y404D01*
X678Y403D02*
X725Y403D01*
X758Y403D02*
X805Y403D01*
X838Y403D02*
X885Y403D01*
X678Y402D02*
X725Y402D01*
X758Y402D02*
X805Y402D01*
X838Y402D02*
X885Y402D01*
X678Y401D02*
X725Y401D01*
X758Y401D02*
X805Y401D01*
X838Y401D02*
X885Y401D01*
X678Y400D02*
X725Y400D01*
X758Y400D02*
X805Y400D01*
X838Y400D02*
X885Y400D01*
X678Y399D02*
X725Y399D01*
X758Y399D02*
X805Y399D01*
X838Y399D02*
X885Y399D01*
X678Y398D02*
X725Y398D01*
X758Y398D02*
X805Y398D01*
X838Y398D02*
X885Y398D01*
X678Y397D02*
X725Y397D01*
X758Y397D02*
X805Y397D01*
X838Y397D02*
X885Y397D01*
X678Y396D02*
X725Y396D01*
X758Y396D02*
X805Y396D01*
X838Y396D02*
X885Y396D01*
X678Y395D02*
X725Y395D01*
X758Y395D02*
X805Y395D01*
X838Y395D02*
X885Y395D01*
X678Y394D02*
X725Y394D01*
X758Y394D02*
X805Y394D01*
X838Y394D02*
X885Y394D01*
X678Y393D02*
X725Y393D01*
X758Y393D02*
X805Y393D01*
X838Y393D02*
X885Y393D01*
X678Y392D02*
X725Y392D01*
X758Y392D02*
X805Y392D01*
X838Y392D02*
X885Y392D01*
X678Y391D02*
X697Y391D01*
X706Y391D02*
X725Y391D01*
X758Y391D02*
X777Y391D01*
X786Y391D02*
X805Y391D01*
X838Y391D02*
X857Y391D01*
X866Y391D02*
X885Y391D01*
X678Y390D02*
X694Y390D01*
X709Y390D02*
X725Y390D01*
X758Y390D02*
X774Y390D01*
X789Y390D02*
X805Y390D01*
X838Y390D02*
X854Y390D01*
X869Y390D02*
X885Y390D01*
X678Y389D02*
X692Y389D01*
X711Y389D02*
X725Y389D01*
X758Y389D02*
X772Y389D01*
X791Y389D02*
X805Y389D01*
X838Y389D02*
X852Y389D01*
X871Y389D02*
X885Y389D01*
X678Y388D02*
X691Y388D01*
X712Y388D02*
X725Y388D01*
X758Y388D02*
X771Y388D01*
X792Y388D02*
X805Y388D01*
X838Y388D02*
X851Y388D01*
X872Y388D02*
X885Y388D01*
X678Y387D02*
X690Y387D01*
X713Y387D02*
X725Y387D01*
X758Y387D02*
X770Y387D01*
X793Y387D02*
X805Y387D01*
X838Y387D02*
X850Y387D01*
X873Y387D02*
X885Y387D01*
X678Y386D02*
X689Y386D01*
X714Y386D02*
X725Y386D01*
X758Y386D02*
X769Y386D01*
X794Y386D02*
X805Y386D01*
X838Y386D02*
X849Y386D01*
X874Y386D02*
X885Y386D01*
X678Y385D02*
X688Y385D01*
X715Y385D02*
X725Y385D01*
X758Y385D02*
X768Y385D01*
X795Y385D02*
X805Y385D01*
X838Y385D02*
X848Y385D01*
X875Y385D02*
X885Y385D01*
X678Y384D02*
X687Y384D01*
X716Y384D02*
X725Y384D01*
X758Y384D02*
X767Y384D01*
X796Y384D02*
X805Y384D01*
X838Y384D02*
X847Y384D01*
X875Y384D02*
X885Y384D01*
X678Y383D02*
X687Y383D01*
X716Y383D02*
X725Y383D01*
X758Y383D02*
X767Y383D01*
X796Y383D02*
X805Y383D01*
X838Y383D02*
X847Y383D01*
X876Y383D02*
X885Y383D01*
X678Y382D02*
X686Y382D01*
X717Y382D02*
X725Y382D01*
X758Y382D02*
X766Y382D01*
X797Y382D02*
X805Y382D01*
X838Y382D02*
X846Y382D01*
X877Y382D02*
X885Y382D01*
X678Y381D02*
X686Y381D01*
X717Y381D02*
X725Y381D01*
X758Y381D02*
X766Y381D01*
X797Y381D02*
X805Y381D01*
X838Y381D02*
X846Y381D01*
X877Y381D02*
X885Y381D01*
X678Y380D02*
X686Y380D01*
X717Y380D02*
X725Y380D01*
X758Y380D02*
X766Y380D01*
X797Y380D02*
X805Y380D01*
X838Y380D02*
X846Y380D01*
X877Y380D02*
X885Y380D01*
X678Y379D02*
X685Y379D01*
X718Y379D02*
X725Y379D01*
X758Y379D02*
X765Y379D01*
X798Y379D02*
X805Y379D01*
X838Y379D02*
X845Y379D01*
X877Y379D02*
X885Y379D01*
X678Y378D02*
X685Y378D01*
X718Y378D02*
X725Y378D01*
X758Y378D02*
X765Y378D01*
X798Y378D02*
X805Y378D01*
X838Y378D02*
X845Y378D01*
X878Y378D02*
X885Y378D01*
X678Y377D02*
X685Y377D01*
X718Y377D02*
X725Y377D01*
X758Y377D02*
X765Y377D01*
X798Y377D02*
X805Y377D01*
X838Y377D02*
X845Y377D01*
X878Y377D02*
X885Y377D01*
X678Y376D02*
X685Y376D01*
X718Y376D02*
X725Y376D01*
X758Y376D02*
X765Y376D01*
X798Y376D02*
X805Y376D01*
X838Y376D02*
X845Y376D01*
X878Y376D02*
X885Y376D01*
X678Y375D02*
X685Y375D01*
X718Y375D02*
X725Y375D01*
X758Y375D02*
X765Y375D01*
X798Y375D02*
X805Y375D01*
X838Y375D02*
X845Y375D01*
X878Y375D02*
X885Y375D01*
X678Y374D02*
X685Y374D01*
X718Y374D02*
X725Y374D01*
X758Y374D02*
X765Y374D01*
X798Y374D02*
X805Y374D01*
X838Y374D02*
X845Y374D01*
X878Y374D02*
X885Y374D01*
X678Y373D02*
X685Y373D01*
X718Y373D02*
X725Y373D01*
X758Y373D02*
X765Y373D01*
X798Y373D02*
X805Y373D01*
X838Y373D02*
X845Y373D01*
X878Y373D02*
X885Y373D01*
X678Y372D02*
X685Y372D01*
X717Y372D02*
X725Y372D01*
X758Y372D02*
X765Y372D01*
X797Y372D02*
X805Y372D01*
X838Y372D02*
X845Y372D01*
X877Y372D02*
X885Y372D01*
X678Y371D02*
X686Y371D01*
X717Y371D02*
X725Y371D01*
X758Y371D02*
X766Y371D01*
X797Y371D02*
X805Y371D01*
X838Y371D02*
X846Y371D01*
X877Y371D02*
X885Y371D01*
X678Y370D02*
X686Y370D01*
X717Y370D02*
X725Y370D01*
X758Y370D02*
X766Y370D01*
X797Y370D02*
X805Y370D01*
X838Y370D02*
X846Y370D01*
X877Y370D02*
X885Y370D01*
X678Y369D02*
X686Y369D01*
X716Y369D02*
X725Y369D01*
X758Y369D02*
X766Y369D01*
X796Y369D02*
X805Y369D01*
X838Y369D02*
X846Y369D01*
X876Y369D02*
X885Y369D01*
X678Y368D02*
X687Y368D01*
X716Y368D02*
X725Y368D01*
X758Y368D02*
X767Y368D01*
X796Y368D02*
X805Y368D01*
X838Y368D02*
X847Y368D01*
X876Y368D02*
X885Y368D01*
X678Y367D02*
X688Y367D01*
X715Y367D02*
X725Y367D01*
X758Y367D02*
X768Y367D01*
X795Y367D02*
X805Y367D01*
X838Y367D02*
X847Y367D01*
X875Y367D02*
X885Y367D01*
X678Y366D02*
X688Y366D01*
X715Y366D02*
X725Y366D01*
X758Y366D02*
X768Y366D01*
X795Y366D02*
X805Y366D01*
X838Y366D02*
X848Y366D01*
X875Y366D02*
X885Y366D01*
X678Y365D02*
X689Y365D01*
X714Y365D02*
X725Y365D01*
X758Y365D02*
X769Y365D01*
X794Y365D02*
X805Y365D01*
X838Y365D02*
X849Y365D01*
X874Y365D02*
X885Y365D01*
X678Y364D02*
X690Y364D01*
X713Y364D02*
X725Y364D01*
X758Y364D02*
X770Y364D01*
X793Y364D02*
X805Y364D01*
X838Y364D02*
X850Y364D01*
X873Y364D02*
X885Y364D01*
X678Y363D02*
X691Y363D01*
X712Y363D02*
X725Y363D01*
X758Y363D02*
X771Y363D01*
X792Y363D02*
X805Y363D01*
X838Y363D02*
X851Y363D01*
X872Y363D02*
X885Y363D01*
X678Y362D02*
X693Y362D01*
X710Y362D02*
X725Y362D01*
X758Y362D02*
X773Y362D01*
X790Y362D02*
X805Y362D01*
X838Y362D02*
X853Y362D01*
X870Y362D02*
X885Y362D01*
X678Y361D02*
X695Y361D01*
X708Y361D02*
X725Y361D01*
X758Y361D02*
X775Y361D01*
X788Y361D02*
X805Y361D01*
X838Y361D02*
X855Y361D01*
X868Y361D02*
X885Y361D01*
X678Y360D02*
X698Y360D01*
X705Y360D02*
X725Y360D01*
X758Y360D02*
X778Y360D01*
X785Y360D02*
X805Y360D01*
X838Y360D02*
X858Y360D01*
X865Y360D02*
X885Y360D01*
X678Y359D02*
X725Y359D01*
X758Y359D02*
X805Y359D01*
X838Y359D02*
X885Y359D01*
X678Y358D02*
X725Y358D01*
X758Y358D02*
X805Y358D01*
X838Y358D02*
X885Y358D01*
X678Y357D02*
X725Y357D01*
X758Y357D02*
X805Y357D01*
X838Y357D02*
X885Y357D01*
X678Y356D02*
X725Y356D01*
X758Y356D02*
X805Y356D01*
X838Y356D02*
X885Y356D01*
X678Y355D02*
X725Y355D01*
X758Y355D02*
X805Y355D01*
X838Y355D02*
X885Y355D01*
X678Y354D02*
X725Y354D01*
X758Y354D02*
X805Y354D01*
X838Y354D02*
X885Y354D01*
X678Y353D02*
X725Y353D01*
X758Y353D02*
X805Y353D01*
X838Y353D02*
X885Y353D01*
X678Y352D02*
X725Y352D01*
X758Y352D02*
X805Y352D01*
X838Y352D02*
X885Y352D01*
X678Y351D02*
X725Y351D01*
X758Y351D02*
X805Y351D01*
X838Y351D02*
X885Y351D01*
X678Y350D02*
X725Y350D01*
X758Y350D02*
X805Y350D01*
X838Y350D02*
X885Y350D01*
X678Y349D02*
X725Y349D01*
X758Y349D02*
X805Y349D01*
X838Y349D02*
X885Y349D01*
X678Y348D02*
X725Y348D01*
X758Y348D02*
X805Y348D01*
X838Y348D02*
X885Y348D01*
X678Y347D02*
X724Y347D01*
X758Y347D02*
X804Y347D01*
X838Y347D02*
X884Y347D01*
X679Y346D02*
X724Y346D01*
X759Y346D02*
X804Y346D01*
X839Y346D02*
X884Y346D01*
X679Y345D02*
X724Y345D01*
X759Y345D02*
X804Y345D01*
X839Y345D02*
X884Y345D01*
X679Y344D02*
X724Y344D01*
X759Y344D02*
X804Y344D01*
X839Y344D02*
X883Y344D01*
X680Y343D02*
X723Y343D01*
X760Y343D02*
X803Y343D01*
X840Y343D02*
X883Y343D01*
X680Y342D02*
X723Y342D01*
X760Y342D02*
X803Y342D01*
X840Y342D02*
X883Y342D01*
X681Y341D02*
X722Y341D01*
X761Y341D02*
X802Y341D01*
X841Y341D02*
X882Y341D01*
X681Y340D02*
X722Y340D01*
X761Y340D02*
X802Y340D01*
X841Y340D02*
X882Y340D01*
X682Y339D02*
X721Y339D01*
X762Y339D02*
X801Y339D01*
X842Y339D02*
X881Y339D01*
X682Y338D02*
X721Y338D01*
X762Y338D02*
X801Y338D01*
X842Y338D02*
X881Y338D01*
X683Y337D02*
X720Y337D01*
X763Y337D02*
X800Y337D01*
X843Y337D02*
X880Y337D01*
X684Y336D02*
X719Y336D01*
X764Y336D02*
X799Y336D01*
X844Y336D02*
X879Y336D01*
X685Y335D02*
X718Y335D01*
X765Y335D02*
X798Y335D01*
X845Y335D02*
X878Y335D01*
X686Y334D02*
X717Y334D01*
X766Y334D02*
X797Y334D01*
X846Y334D02*
X877Y334D01*
X687Y333D02*
X716Y333D01*
X767Y333D02*
X796Y333D01*
X847Y333D02*
X876Y333D01*
X688Y332D02*
X715Y332D01*
X768Y332D02*
X795Y332D01*
X848Y332D02*
X874Y332D01*
X690Y331D02*
X713Y331D01*
X770Y331D02*
X793Y331D01*
X850Y331D02*
X873Y331D01*
X692Y330D02*
X711Y330D01*
X772Y330D02*
X791Y330D01*
X852Y330D02*
X871Y330D01*
X695Y329D02*
X708Y329D01*
X775Y329D02*
X788Y329D01*
X854Y329D02*
X868Y329D01*
X698Y328D02*
X704Y328D01*
X778Y328D02*
X784Y328D01*
X858Y328D02*
X864Y328D01*
X1473Y228D02*
X1475Y228D01*
X1542Y228D02*
X1554Y228D01*
X1579Y228D02*
X1590Y228D01*
X1614Y228D02*
X1651Y228D01*
X1471Y227D02*
X1477Y227D01*
X1542Y227D02*
X1554Y227D01*
X1578Y227D02*
X1591Y227D01*
X1614Y227D02*
X1654Y227D01*
X1470Y226D02*
X1478Y226D01*
X1542Y226D02*
X1555Y226D01*
X1577Y226D02*
X1591Y226D01*
X1614Y226D02*
X1656Y226D01*
X1470Y225D02*
X1478Y225D01*
X1542Y225D02*
X1556Y225D01*
X1576Y225D02*
X1591Y225D01*
X1614Y225D02*
X1657Y225D01*
X1470Y224D02*
X1478Y224D01*
X1542Y224D02*
X1556Y224D01*
X1576Y224D02*
X1591Y224D01*
X1614Y224D02*
X1658Y224D01*
X1469Y223D02*
X1479Y223D01*
X1542Y223D02*
X1557Y223D01*
X1575Y223D02*
X1591Y223D01*
X1614Y223D02*
X1659Y223D01*
X1469Y222D02*
X1479Y222D01*
X1542Y222D02*
X1558Y222D01*
X1574Y222D02*
X1591Y222D01*
X1614Y222D02*
X1660Y222D01*
X1469Y221D02*
X1479Y221D01*
X1542Y221D02*
X1558Y221D01*
X1574Y221D02*
X1591Y221D01*
X1614Y221D02*
X1661Y221D01*
X1469Y220D02*
X1479Y220D01*
X1542Y220D02*
X1559Y220D01*
X1573Y220D02*
X1591Y220D01*
X1614Y220D02*
X1661Y220D01*
X1469Y219D02*
X1479Y219D01*
X1542Y219D02*
X1560Y219D01*
X1572Y219D02*
X1591Y219D01*
X1614Y219D02*
X1662Y219D01*
X1469Y218D02*
X1479Y218D01*
X1542Y218D02*
X1561Y218D01*
X1572Y218D02*
X1591Y218D01*
X1614Y218D02*
X1623Y218D01*
X1650Y218D02*
X1662Y218D01*
X1469Y217D02*
X1479Y217D01*
X1542Y217D02*
X1561Y217D01*
X1571Y217D02*
X1591Y217D01*
X1614Y217D02*
X1623Y217D01*
X1652Y217D02*
X1662Y217D01*
X1469Y216D02*
X1479Y216D01*
X1542Y216D02*
X1562Y216D01*
X1570Y216D02*
X1591Y216D01*
X1614Y216D02*
X1623Y216D01*
X1653Y216D02*
X1663Y216D01*
X1469Y215D02*
X1479Y215D01*
X1542Y215D02*
X1563Y215D01*
X1570Y215D02*
X1591Y215D01*
X1614Y215D02*
X1623Y215D01*
X1653Y215D02*
X1663Y215D01*
X1469Y214D02*
X1479Y214D01*
X1542Y214D02*
X1563Y214D01*
X1569Y214D02*
X1591Y214D01*
X1614Y214D02*
X1623Y214D01*
X1653Y214D02*
X1663Y214D01*
X1469Y213D02*
X1479Y213D01*
X1542Y213D02*
X1551Y213D01*
X1553Y213D02*
X1564Y213D01*
X1568Y213D02*
X1579Y213D01*
X1581Y213D02*
X1591Y213D01*
X1614Y213D02*
X1623Y213D01*
X1654Y213D02*
X1663Y213D01*
X1469Y212D02*
X1479Y212D01*
X1542Y212D02*
X1551Y212D01*
X1553Y212D02*
X1565Y212D01*
X1567Y212D02*
X1579Y212D01*
X1581Y212D02*
X1591Y212D01*
X1614Y212D02*
X1623Y212D01*
X1654Y212D02*
X1663Y212D01*
X1469Y211D02*
X1479Y211D01*
X1542Y211D02*
X1551Y211D01*
X1554Y211D02*
X1578Y211D01*
X1581Y211D02*
X1591Y211D01*
X1614Y211D02*
X1623Y211D01*
X1654Y211D02*
X1663Y211D01*
X1469Y210D02*
X1479Y210D01*
X1542Y210D02*
X1551Y210D01*
X1555Y210D02*
X1577Y210D01*
X1581Y210D02*
X1591Y210D01*
X1614Y210D02*
X1623Y210D01*
X1654Y210D02*
X1663Y210D01*
X1469Y209D02*
X1479Y209D01*
X1542Y209D02*
X1551Y209D01*
X1555Y209D02*
X1577Y209D01*
X1581Y209D02*
X1591Y209D01*
X1614Y209D02*
X1623Y209D01*
X1654Y209D02*
X1663Y209D01*
X1469Y208D02*
X1479Y208D01*
X1542Y208D02*
X1551Y208D01*
X1556Y208D02*
X1576Y208D01*
X1581Y208D02*
X1591Y208D01*
X1614Y208D02*
X1623Y208D01*
X1654Y208D02*
X1663Y208D01*
X1469Y207D02*
X1479Y207D01*
X1542Y207D02*
X1551Y207D01*
X1557Y207D02*
X1575Y207D01*
X1581Y207D02*
X1591Y207D01*
X1614Y207D02*
X1623Y207D01*
X1653Y207D02*
X1663Y207D01*
X1469Y206D02*
X1479Y206D01*
X1542Y206D02*
X1551Y206D01*
X1558Y206D02*
X1575Y206D01*
X1581Y206D02*
X1591Y206D01*
X1614Y206D02*
X1623Y206D01*
X1653Y206D02*
X1663Y206D01*
X1469Y205D02*
X1479Y205D01*
X1542Y205D02*
X1551Y205D01*
X1558Y205D02*
X1574Y205D01*
X1581Y205D02*
X1591Y205D01*
X1614Y205D02*
X1623Y205D01*
X1653Y205D02*
X1662Y205D01*
X1469Y204D02*
X1479Y204D01*
X1542Y204D02*
X1551Y204D01*
X1559Y204D02*
X1573Y204D01*
X1581Y204D02*
X1591Y204D01*
X1614Y204D02*
X1623Y204D01*
X1652Y204D02*
X1662Y204D01*
X1469Y203D02*
X1479Y203D01*
X1542Y203D02*
X1551Y203D01*
X1560Y203D02*
X1572Y203D01*
X1581Y203D02*
X1591Y203D01*
X1614Y203D02*
X1623Y203D01*
X1649Y203D02*
X1662Y203D01*
X1469Y202D02*
X1479Y202D01*
X1542Y202D02*
X1551Y202D01*
X1560Y202D02*
X1572Y202D01*
X1581Y202D02*
X1591Y202D01*
X1614Y202D02*
X1662Y202D01*
X1469Y201D02*
X1479Y201D01*
X1542Y201D02*
X1551Y201D01*
X1561Y201D02*
X1571Y201D01*
X1581Y201D02*
X1591Y201D01*
X1614Y201D02*
X1661Y201D01*
X1469Y200D02*
X1479Y200D01*
X1542Y200D02*
X1551Y200D01*
X1562Y200D02*
X1571Y200D01*
X1581Y200D02*
X1591Y200D01*
X1614Y200D02*
X1660Y200D01*
X1469Y199D02*
X1479Y199D01*
X1542Y199D02*
X1551Y199D01*
X1562Y199D02*
X1571Y199D01*
X1581Y199D02*
X1591Y199D01*
X1614Y199D02*
X1660Y199D01*
X1469Y198D02*
X1479Y198D01*
X1542Y198D02*
X1551Y198D01*
X1562Y198D02*
X1571Y198D01*
X1581Y198D02*
X1591Y198D01*
X1614Y198D02*
X1659Y198D01*
X1469Y197D02*
X1479Y197D01*
X1542Y197D02*
X1551Y197D01*
X1562Y197D02*
X1570Y197D01*
X1581Y197D02*
X1591Y197D01*
X1614Y197D02*
X1658Y197D01*
X1469Y196D02*
X1479Y196D01*
X1542Y196D02*
X1551Y196D01*
X1562Y196D02*
X1570Y196D01*
X1581Y196D02*
X1591Y196D01*
X1614Y196D02*
X1657Y196D01*
X1469Y195D02*
X1479Y195D01*
X1542Y195D02*
X1551Y195D01*
X1562Y195D02*
X1570Y195D01*
X1581Y195D02*
X1591Y195D01*
X1614Y195D02*
X1655Y195D01*
X1469Y194D02*
X1479Y194D01*
X1542Y194D02*
X1551Y194D01*
X1563Y194D02*
X1569Y194D01*
X1581Y194D02*
X1591Y194D01*
X1614Y194D02*
X1654Y194D01*
X1469Y193D02*
X1479Y193D01*
X1542Y193D02*
X1551Y193D01*
X1565Y193D02*
X1567Y193D01*
X1581Y193D02*
X1591Y193D01*
X1614Y193D02*
X1650Y193D01*
X1469Y192D02*
X1479Y192D01*
X1542Y192D02*
X1551Y192D01*
X1581Y192D02*
X1591Y192D01*
X1614Y192D02*
X1623Y192D01*
X1631Y192D02*
X1642Y192D01*
X1469Y191D02*
X1479Y191D01*
X1542Y191D02*
X1551Y191D01*
X1581Y191D02*
X1591Y191D01*
X1614Y191D02*
X1623Y191D01*
X1632Y191D02*
X1643Y191D01*
X1469Y190D02*
X1479Y190D01*
X1542Y190D02*
X1551Y190D01*
X1581Y190D02*
X1591Y190D01*
X1614Y190D02*
X1623Y190D01*
X1633Y190D02*
X1643Y190D01*
X1469Y189D02*
X1479Y189D01*
X1542Y189D02*
X1551Y189D01*
X1581Y189D02*
X1591Y189D01*
X1614Y189D02*
X1623Y189D01*
X1633Y189D02*
X1644Y189D01*
X1469Y188D02*
X1479Y188D01*
X1542Y188D02*
X1551Y188D01*
X1581Y188D02*
X1591Y188D01*
X1614Y188D02*
X1623Y188D01*
X1634Y188D02*
X1645Y188D01*
X1469Y187D02*
X1479Y187D01*
X1542Y187D02*
X1551Y187D01*
X1581Y187D02*
X1591Y187D01*
X1614Y187D02*
X1623Y187D01*
X1634Y187D02*
X1645Y187D01*
X1469Y186D02*
X1479Y186D01*
X1542Y186D02*
X1551Y186D01*
X1581Y186D02*
X1591Y186D01*
X1614Y186D02*
X1623Y186D01*
X1635Y186D02*
X1646Y186D01*
X1469Y185D02*
X1479Y185D01*
X1542Y185D02*
X1551Y185D01*
X1581Y185D02*
X1591Y185D01*
X1614Y185D02*
X1623Y185D01*
X1635Y185D02*
X1646Y185D01*
X1469Y184D02*
X1479Y184D01*
X1542Y184D02*
X1551Y184D01*
X1581Y184D02*
X1591Y184D01*
X1614Y184D02*
X1623Y184D01*
X1636Y184D02*
X1647Y184D01*
X1469Y183D02*
X1479Y183D01*
X1542Y183D02*
X1551Y183D01*
X1581Y183D02*
X1591Y183D01*
X1614Y183D02*
X1623Y183D01*
X1637Y183D02*
X1647Y183D01*
X1469Y182D02*
X1479Y182D01*
X1542Y182D02*
X1551Y182D01*
X1581Y182D02*
X1591Y182D01*
X1614Y182D02*
X1623Y182D01*
X1637Y182D02*
X1648Y182D01*
X1469Y181D02*
X1479Y181D01*
X1542Y181D02*
X1551Y181D01*
X1581Y181D02*
X1591Y181D01*
X1614Y181D02*
X1623Y181D01*
X1638Y181D02*
X1649Y181D01*
X1469Y180D02*
X1479Y180D01*
X1542Y180D02*
X1551Y180D01*
X1581Y180D02*
X1591Y180D01*
X1614Y180D02*
X1623Y180D01*
X1638Y180D02*
X1649Y180D01*
X1469Y179D02*
X1479Y179D01*
X1542Y179D02*
X1551Y179D01*
X1581Y179D02*
X1591Y179D01*
X1614Y179D02*
X1623Y179D01*
X1639Y179D02*
X1650Y179D01*
X1469Y178D02*
X1479Y178D01*
X1542Y178D02*
X1551Y178D01*
X1581Y178D02*
X1591Y178D01*
X1614Y178D02*
X1623Y178D01*
X1640Y178D02*
X1650Y178D01*
X1469Y177D02*
X1479Y177D01*
X1542Y177D02*
X1551Y177D01*
X1581Y177D02*
X1591Y177D01*
X1614Y177D02*
X1623Y177D01*
X1640Y177D02*
X1651Y177D01*
X1469Y176D02*
X1479Y176D01*
X1542Y176D02*
X1551Y176D01*
X1581Y176D02*
X1591Y176D01*
X1614Y176D02*
X1623Y176D01*
X1641Y176D02*
X1652Y176D01*
X1469Y175D02*
X1479Y175D01*
X1542Y175D02*
X1551Y175D01*
X1581Y175D02*
X1591Y175D01*
X1614Y175D02*
X1623Y175D01*
X1641Y175D02*
X1652Y175D01*
X1469Y174D02*
X1479Y174D01*
X1542Y174D02*
X1551Y174D01*
X1581Y174D02*
X1591Y174D01*
X1614Y174D02*
X1623Y174D01*
X1642Y174D02*
X1653Y174D01*
X1469Y173D02*
X1479Y173D01*
X1542Y173D02*
X1551Y173D01*
X1581Y173D02*
X1591Y173D01*
X1614Y173D02*
X1623Y173D01*
X1643Y173D02*
X1653Y173D01*
X1469Y172D02*
X1479Y172D01*
X1542Y172D02*
X1551Y172D01*
X1581Y172D02*
X1591Y172D01*
X1614Y172D02*
X1623Y172D01*
X1643Y172D02*
X1654Y172D01*
X1469Y171D02*
X1479Y171D01*
X1542Y171D02*
X1551Y171D01*
X1581Y171D02*
X1591Y171D01*
X1614Y171D02*
X1623Y171D01*
X1644Y171D02*
X1654Y171D01*
X1469Y170D02*
X1479Y170D01*
X1542Y170D02*
X1551Y170D01*
X1581Y170D02*
X1591Y170D01*
X1614Y170D02*
X1623Y170D01*
X1644Y170D02*
X1655Y170D01*
X1469Y169D02*
X1479Y169D01*
X1542Y169D02*
X1551Y169D01*
X1581Y169D02*
X1591Y169D01*
X1614Y169D02*
X1623Y169D01*
X1645Y169D02*
X1656Y169D01*
X1469Y168D02*
X1479Y168D01*
X1542Y168D02*
X1551Y168D01*
X1581Y168D02*
X1591Y168D01*
X1614Y168D02*
X1623Y168D01*
X1645Y168D02*
X1656Y168D01*
X1469Y167D02*
X1479Y167D01*
X1542Y167D02*
X1551Y167D01*
X1581Y167D02*
X1591Y167D01*
X1614Y167D02*
X1623Y167D01*
X1646Y167D02*
X1657Y167D01*
X1469Y166D02*
X1479Y166D01*
X1542Y166D02*
X1551Y166D01*
X1581Y166D02*
X1591Y166D01*
X1614Y166D02*
X1623Y166D01*
X1647Y166D02*
X1657Y166D01*
X1469Y165D02*
X1479Y165D01*
X1542Y165D02*
X1551Y165D01*
X1581Y165D02*
X1591Y165D01*
X1614Y165D02*
X1623Y165D01*
X1647Y165D02*
X1658Y165D01*
X1469Y164D02*
X1479Y164D01*
X1542Y164D02*
X1551Y164D01*
X1581Y164D02*
X1591Y164D01*
X1614Y164D02*
X1623Y164D01*
X1648Y164D02*
X1659Y164D01*
X1469Y163D02*
X1479Y163D01*
X1542Y163D02*
X1551Y163D01*
X1581Y163D02*
X1591Y163D01*
X1614Y163D02*
X1623Y163D01*
X1648Y163D02*
X1659Y163D01*
X1469Y162D02*
X1479Y162D01*
X1542Y162D02*
X1551Y162D01*
X1581Y162D02*
X1591Y162D01*
X1614Y162D02*
X1623Y162D01*
X1649Y162D02*
X1660Y162D01*
X1469Y161D02*
X1479Y161D01*
X1542Y161D02*
X1551Y161D01*
X1581Y161D02*
X1591Y161D01*
X1614Y161D02*
X1623Y161D01*
X1650Y161D02*
X1660Y161D01*
X1469Y160D02*
X1515Y160D01*
X1542Y160D02*
X1551Y160D01*
X1581Y160D02*
X1591Y160D01*
X1614Y160D02*
X1623Y160D01*
X1650Y160D02*
X1661Y160D01*
X1469Y159D02*
X1517Y159D01*
X1542Y159D02*
X1551Y159D01*
X1581Y159D02*
X1591Y159D01*
X1614Y159D02*
X1623Y159D01*
X1651Y159D02*
X1661Y159D01*
X1469Y158D02*
X1517Y158D01*
X1542Y158D02*
X1551Y158D01*
X1581Y158D02*
X1591Y158D01*
X1614Y158D02*
X1623Y158D01*
X1651Y158D02*
X1662Y158D01*
X1469Y157D02*
X1518Y157D01*
X1542Y157D02*
X1551Y157D01*
X1581Y157D02*
X1591Y157D01*
X1614Y157D02*
X1623Y157D01*
X1652Y157D02*
X1662Y157D01*
X1469Y156D02*
X1518Y156D01*
X1542Y156D02*
X1551Y156D01*
X1581Y156D02*
X1591Y156D01*
X1614Y156D02*
X1623Y156D01*
X1652Y156D02*
X1663Y156D01*
X1469Y155D02*
X1518Y155D01*
X1542Y155D02*
X1551Y155D01*
X1581Y155D02*
X1590Y155D01*
X1614Y155D02*
X1623Y155D01*
X1653Y155D02*
X1663Y155D01*
X1469Y154D02*
X1518Y154D01*
X1542Y154D02*
X1551Y154D01*
X1582Y154D02*
X1590Y154D01*
X1614Y154D02*
X1623Y154D01*
X1654Y154D02*
X1663Y154D01*
X1469Y153D02*
X1518Y153D01*
X1542Y153D02*
X1550Y153D01*
X1582Y153D02*
X1590Y153D01*
X1615Y153D02*
X1622Y153D01*
X1654Y153D02*
X1662Y153D01*
X1469Y152D02*
X1517Y152D01*
X1543Y152D02*
X1549Y152D01*
X1583Y152D02*
X1589Y152D01*
X1615Y152D02*
X1622Y152D01*
X1655Y152D02*
X1661Y152D01*
X1469Y151D02*
X1515Y151D01*
X1544Y151D02*
X1548Y151D01*
X1584Y151D02*
X1588Y151D01*
X1617Y151D02*
X1620Y151D01*
X1656Y151D02*
X1660Y151D01*
D02*
G04 End of Copper1*
M02*