; NON-PLATED HOLES START AT T1
; THROUGH (PLATED) HOLES START AT T100
M48
INCH
T100C0.039370
T101C0.037178
T102C0.015748
T103C0.035000
T104C0.042000
%
T100
X001821Y002743
X001821Y001365
T101
X007822Y003743
X007022Y003743
X008621Y003743
T102
X002111Y014706
X002058Y016770
X002058Y015765
T103
X001821Y009743
X002821Y009743
X012821Y006743
X005821Y006743
X012821Y003743
X012821Y009743
X010821Y009743
X009821Y009743
X011821Y003743
X002821Y006743
X013821Y006743
X008821Y009743
X009821Y006743
X008821Y006743
X001821Y006743
X013821Y009743
X000821Y006743
X011821Y009743
X004821Y002743
X016821Y007743
X009821Y002743
X009821Y001743
X005821Y009743
X006821Y006743
X004821Y001743
X007821Y006743
X004821Y009743
X016821Y003743
X007821Y009743
X004821Y006743
X010821Y006743
X011821Y006743
X006821Y009743
X003821Y006743
X000821Y009743
X003821Y009743
T104
X010821Y013743
X009821Y013743
X014821Y014743
X003821Y012743
X005821Y012743
X008821Y013743
X015821Y014743
X013821Y014743
X004821Y012743
T00
M30
